# xmcd
#
# Track frame offsets:
#	150
#	14612
#	30887
#	44930
#	61088
#	78467
#	92850
#	116210
#	132055
#	145422
#	159345
#	172945
#
# Disc length: 2487 seconds
#
# Revision: 1
# Processed by: cddbd v1.4PL0 Copyright (c) Steve Scherf et al.
# Submitted via: audiograbber 1.81.02
#
DISCID=9c09b50c
DTITLE=Aus den Hitparaden - Musik Express Folge 13
DYEAR=1995
DGENRE=
TTITLE0=Kastelruther Spatzen - Du gehörst in meine Arme
TTITLE1=Relax - Nur bei dir
TTITLE2=Leonard - Doreen
TTITLE3=Peggy March - Aus purer Sehnsucht nach dir
TTITLE4=Carriere - Michelle
TTITLE5=Beny Rehmann - Ein Herz voll Sehnsucht
TTITLE6=Brunner and Brunner - Im Namen der Liebe
TTITLE7=Nockalm Quintett - Roter Mond von Surabaya
TTITLE8=Alpenland Quintett - I bin a Bergeskind
TTITLE9=Schachner and Co. - Seit du da bist
TTITLE10=Tops - Cafe au lait
TTITLE11=Acoustic Sound Orchestra - Night in Russia
EXTD=Koch Musikverlag
EXTT0=
EXTT1=
EXTT2=
EXTT3=
EXTT4=
EXTT5=
EXTT6=
EXTT7=
EXTT8=
EXTT9=
EXTT10=
EXTT11=
PLAYORDER=
